<svg width="86" height="133" viewBox="0 0 86 133" fill="none" xmlns="http://www.w3.org/2000/svg">
<path d="M2 130.628L33.9712 131" stroke="white" stroke-width="3" stroke-miterlimit="10"/>
<path d="M82.2997 130.628L50.3285 131" stroke="white" stroke-width="3" stroke-miterlimit="10"/>
<path d="M34.7147 17.9856H18.3574V34.3429H34.7147V17.9856Z" stroke="white" stroke-width="3" stroke-miterlimit="10" stroke-linecap="square" stroke-linejoin="round"/>
<path d="M67.4294 17.9856H51.072V34.3429H67.4294V17.9856Z" stroke="white" stroke-width="3" stroke-miterlimit="10" stroke-linecap="square" stroke-linejoin="round"/>
<path d="M51.0721 34.3429H67.4294V49.9568L42.8934 34.7147L18.3574 49.9568V34.3429H34.7147V17.9856H18.3574L34.7147 2H51.0721L67.4294 17.9856H51.0721V34.3429Z" stroke="white" stroke-width="3" stroke-miterlimit="10" stroke-linecap="square" stroke-linejoin="round"/>
<path d="M75.6081 58.6931V104.977L67.2435 113.342H19.1938L10.5504 104.698V58.2953L18.3574 49.9568L42.8934 57.3919L67.4294 49.9568L75.6081 58.6931Z" stroke="white" stroke-width="3" stroke-miterlimit="10" stroke-linecap="square" stroke-linejoin="round"/>
<path d="M67.4294 49.9568L42.8934 57.3919L18.3574 49.9568L42.8934 34.7147L67.4294 49.9568Z" stroke="white" stroke-width="3" stroke-miterlimit="10" stroke-linecap="square" stroke-linejoin="round"/>
<path d="M83.8797 96.7053L75.6081 104.977V58.6931L83.7867 67.4294L83.8797 96.7053Z" stroke="white" stroke-width="3" stroke-miterlimit="10" stroke-linecap="square" stroke-linejoin="round"/>
<path d="M10.5504 58.2953V104.698L2.09294 96.2406V67.329L10.5504 58.2953Z" stroke="white" stroke-width="3" stroke-miterlimit="10" stroke-linecap="square" stroke-linejoin="round"/>
<path d="M45.3216 68.8844L54.9193 74.4282L54.8352 74.5741L43.6506 68.1191L42.9008 67.6864L42.151 68.1192L30.6579 74.7525L30.5738 74.6068L40.4835 68.8845L42.7337 67.5852L40.4832 66.2864L30.3807 60.4561L30.4646 60.3108L42.151 67.0556L42.901 67.4885L43.6509 67.0555L55.0292 60.4854L55.1155 60.6348L45.3222 66.2863L43.0719 67.5849L45.3216 68.8844Z" fill="white" stroke="white" stroke-width="3"/>
</svg>
