<svg width="228" height="140" viewBox="0 0 228 140" fill="none" xmlns="http://www.w3.org/2000/svg">
<path d="M2 130.628L33.9712 131" stroke="#555555" stroke-width="3" stroke-miterlimit="10"/>
<path d="M82.2997 130.628L50.3285 131" stroke="#555555" stroke-width="3" stroke-miterlimit="10"/>
<path d="M34.7147 17.9856H18.3574V34.3429H34.7147V17.9856Z" stroke="#555555" stroke-width="3" stroke-miterlimit="10" stroke-linecap="square" stroke-linejoin="round"/>
<path d="M67.4294 17.9856H51.072V34.3429H67.4294V17.9856Z" stroke="#555555" stroke-width="3" stroke-miterlimit="10" stroke-linecap="square" stroke-linejoin="round"/>
<path d="M51.0721 34.3429H67.4294V49.9568L42.8934 34.7147L18.3574 49.9568V34.3429H34.7147V17.9856H18.3574L34.7147 2H51.0721L67.4294 17.9856H51.0721V34.3429Z" stroke="#555555" stroke-width="3" stroke-miterlimit="10" stroke-linecap="square" stroke-linejoin="round"/>
<path d="M75.6081 58.6931V104.977L67.2435 113.342H19.1938L10.5504 104.698V58.2953L18.3574 49.9568L42.8934 57.3919L67.4294 49.9568L75.6081 58.6931Z" stroke="#555555" stroke-width="3" stroke-miterlimit="10" stroke-linecap="square" stroke-linejoin="round"/>
<path d="M67.4294 49.9568L42.8934 57.392L18.3574 49.9568L42.8934 34.7147L67.4294 49.9568Z" stroke="#555555" stroke-width="3" stroke-miterlimit="10" stroke-linecap="square" stroke-linejoin="round"/>
<path d="M83.8797 96.7054L75.6081 104.977V58.6931L83.7867 67.4294L83.8797 96.7054Z" stroke="#555555" stroke-width="3" stroke-miterlimit="10" stroke-linecap="square" stroke-linejoin="round"/>
<path d="M10.5504 58.2953V104.698L2.09294 96.2406V67.329L10.5504 58.2953Z" stroke="#555555" stroke-width="3" stroke-miterlimit="10" stroke-linecap="square" stroke-linejoin="round"/>
<path d="M45.3216 68.8844L54.9193 74.4282L54.8352 74.5741L43.6506 68.1191L42.9008 67.6864L42.151 68.1192L30.6579 74.7525L30.5738 74.6068L40.4835 68.8845L42.7337 67.5852L40.4832 66.2864L30.3807 60.4561L30.4646 60.3108L42.151 67.0556L42.901 67.4885L43.6509 67.0555L55.0292 60.4854L55.1155 60.6348L45.3222 66.2863L43.0719 67.5849L45.3216 68.8844Z" fill="#555555" stroke="#555555" stroke-width="3"/>
<path d="M122.408 114.652L127.787 105.406H132.92L125.186 118.098L133.096 131H127.91L122.408 121.613L116.889 131H111.721L119.648 118.098L111.896 105.406H117.029L122.408 114.652ZM136.383 131V105.406H143.941C146.203 105.406 148.207 105.91 149.953 106.918C151.711 107.926 153.07 109.355 154.031 111.207C154.992 113.059 155.473 115.18 155.473 117.57V118.854C155.473 121.279 154.986 123.412 154.014 125.252C153.053 127.092 151.676 128.51 149.883 129.506C148.102 130.502 146.057 131 143.748 131H136.383ZM140.83 108.992V127.449H143.73C146.062 127.449 147.85 126.723 149.092 125.27C150.346 123.805 150.984 121.707 151.008 118.977V117.553C151.008 114.775 150.404 112.654 149.197 111.189C147.99 109.725 146.238 108.992 143.941 108.992H140.83ZM178.623 105.406V122.51C178.623 125.229 177.75 127.385 176.004 128.979C174.27 130.561 171.955 131.352 169.061 131.352C166.131 131.352 163.805 130.572 162.082 129.014C160.359 127.443 159.498 125.27 159.498 122.492V105.406H163.928V122.527C163.928 124.238 164.361 125.545 165.229 126.447C166.096 127.35 167.373 127.801 169.061 127.801C172.482 127.801 174.193 125.996 174.193 122.387V105.406H178.623ZM202.916 122.668C202.658 125.398 201.65 127.531 199.893 129.066C198.135 130.59 195.797 131.352 192.879 131.352C190.84 131.352 189.041 130.871 187.482 129.91C185.936 128.938 184.74 127.561 183.896 125.779C183.053 123.998 182.613 121.93 182.578 119.574V117.184C182.578 114.77 183.006 112.643 183.861 110.803C184.717 108.963 185.941 107.545 187.535 106.549C189.141 105.553 190.992 105.055 193.09 105.055C195.914 105.055 198.188 105.822 199.91 107.357C201.633 108.893 202.635 111.061 202.916 113.861H198.486C198.275 112.021 197.736 110.697 196.869 109.889C196.014 109.068 194.754 108.658 193.09 108.658C191.156 108.658 189.668 109.367 188.625 110.785C187.594 112.191 187.066 114.26 187.043 116.99V119.258C187.043 122.023 187.535 124.133 188.52 125.586C189.516 127.039 190.969 127.766 192.879 127.766C194.625 127.766 195.938 127.373 196.816 126.588C197.695 125.803 198.252 124.496 198.486 122.668H202.916ZM214.254 119.943L211.354 123.02V131H206.906V105.406H211.354V117.412L213.814 114.371L221.303 105.406H226.682L217.172 116.744L227.227 131H221.953L214.254 119.943Z" fill="#555555"/>
</svg>
